<?xml version="1.0" encoding="iso-8859-1"?>
<!-- Generator: Adobe Illustrator 18.0.0, SVG Export Plug-In . SVG Version: 6.00 Build 0)  -->
<!DOCTYPE svg PUBLIC "-//W3C//DTD SVG 1.1//EN" "http://www.w3.org/Graphics/SVG/1.1/DTD/svg11.dtd">
<svg xmlns="http://www.w3.org/2000/svg" xmlns:xlink="http://www.w3.org/1999/xlink" version="1.1" id="Capa_1" x="0px" y="0px" viewBox="0 0 297 297" style="enable-background:new 0 0 297 297;" xml:space="preserve" width="512px" height="512px">
<path d="M280.832,184.339c1.099-8.887-0.454-17.648-0.36-25.369c0.045-3.643,0.087-7.083,0.239-9.951  c0.916-17.172,10.043-23.494,11.11-24.174c4.003-2.028,5.933-6.446,4.907-10.825c-1.032-4.408-5.139-7.433-9.667-7.433h-32.167  c-2.631,0-5.15,1.063-6.985,2.949l-20.308,20.864V74.825c0-35.697-29.042-64.738-64.739-64.738H81.796  c-35.697,0-64.738,29.041-64.738,64.738v75.751C5.936,164.347,0,180.163,0,196.75c0,24.715,13.16,47.726,37.056,64.795  c22.904,16.359,53.187,25.369,85.274,25.369c24.628,0,48.179-5.326,68.159-15.193c9.147,9.364,21.9,15.193,35.993,15.193h13.753  c27.76,0,50.345-22.585,50.345-50.345v-42.482C290.58,188.703,286.215,184.339,280.832,184.339z M36.553,132.324V74.825  c0-24.947,20.296-45.244,45.244-45.244h81.066c24.948,0,45.245,20.296,45.245,45.244v57.498c-3.561-2.543-7.81-5.269-11.71-7.447  c0-21.161-31.737-32.345-64.32-34.11v-6.6c0-5.383-4.364-9.747-9.747-9.747c-5.383,0-9.747,4.364-9.747,9.747v6.6  c-32.583,1.764-64.333,12.948-64.333,34.11C44.35,127.055,40.114,129.78,36.553,132.324z M122.33,126.081  c5.383,0,9.747-4.364,9.747-9.747v-6.039c11.466,0.692,22.099,2.596,30.628,5.539c10.687,3.69,13.831,7.535,14.192,8.541  c-0.361,1.006-3.505,4.852-14.192,8.541c-10.905,3.763-25.243,5.836-40.376,5.836c-15.132,0-29.471-2.073-40.376-5.836  c-10.687-3.69-13.831-7.535-14.192-8.541c0.361-1.006,3.505-4.852,14.192-8.541c8.529-2.943,19.162-4.847,30.628-5.539v6.039  C112.583,121.716,116.947,126.081,122.33,126.081z M122.33,267.419c-28.058,0-54.318-7.72-73.942-21.738  c-18.631-13.308-28.893-30.686-28.893-48.931s10.261-35.623,28.893-48.931c2.916-2.083,5.982-4.024,9.179-5.82  c13.554,11.068,39.822,16.249,64.764,16.249s51.21-5.181,64.764-16.249c3.196,1.797,6.262,3.737,9.179,5.82  c14.346,10.248,23.72,22.909,27.276,36.52h-37.664c-5.383,0-9.747,4.364-9.747,9.747v42.482c0,6.606,1.292,12.913,3.615,18.698  C162.906,263.164,143.118,267.419,122.33,267.419z M271.085,236.569c0,17.01-13.84,30.85-30.85,30.85h-13.753  c-17.01,0-30.85-13.84-30.85-30.85v-32.735h75.453V236.569z M243.522,184.339c-1.896-10.362-6.162-20.272-12.61-29.391  l28.098-28.867h7.543c-2.718,5.705-4.83,12.922-5.308,21.9c-0.175,3.268-0.219,6.903-0.266,10.752  c-0.113,9.251-0.423,17.897-1.516,25.606H243.522z" fill="#61afef"/>
<g>
</g>
<g>
</g>
<g>
</g>
<g>
</g>
<g>
</g>
<g>
</g>
<g>
</g>
<g>
</g>
<g>
</g>
<g>
</g>
<g>
</g>
<g>
</g>
<g>
</g>
<g>
</g>
<g>
</g>
</svg>
